<svg width="31" height="22" viewBox="0 0 31 22" fill="none" xmlns="http://www.w3.org/2000/svg">
<path d="M10.5625 10.6133C10.5625 10.1758 10.4766 9.75391 10.3047 9.34766C10.1406 8.93359 9.91406 8.57031 9.625 8.25781C9.33594 7.9375 8.99609 7.68359 8.60547 7.49609C8.22266 7.30078 7.8125 7.20312 7.375 7.20312C6.9375 7.20312 6.52344 7.27734 6.13281 7.42578C5.75 7.57422 5.41406 7.79297 5.125 8.08203C4.84375 8.37109 4.62109 8.73047 4.45703 9.16016C4.29297 9.58203 4.21094 10.0664 4.21094 10.6133C4.21094 11.1367 4.29297 11.6094 4.45703 12.0312C4.62109 12.4453 4.84375 12.8008 5.125 13.0977C5.41406 13.3945 5.75 13.625 6.13281 13.7891C6.52344 13.9453 6.9375 14.0234 7.375 14.0234C7.8125 14.0234 8.22266 13.9297 8.60547 13.7422C8.99609 13.5469 9.33594 13.293 9.625 12.9805C9.91406 12.6602 10.1406 12.2969 10.3047 11.8906C10.4766 11.4766 10.5625 11.0508 10.5625 10.6133ZM13.7852 15.418C13.7852 16.3008 13.6172 17.1289 13.2812 17.9023C12.9453 18.6758 12.4844 19.3516 11.8984 19.9297C11.3203 20.5078 10.6406 20.9648 9.85938 21.3008C9.08594 21.6367 8.25781 21.8047 7.375 21.8047L5.76953 21.7812V18.582L7.35156 18.6055C7.85156 18.6055 8.27734 18.5391 8.62891 18.4062C8.98047 18.2812 9.27734 18.1055 9.51953 17.8789C9.76172 17.6602 9.95312 17.4062 10.0938 17.1172C10.2422 16.8281 10.3594 16.5234 10.4453 16.2031C10.3203 16.4062 10.1406 16.5742 9.90625 16.707C9.67188 16.832 9.41016 16.9336 9.12109 17.0117C8.83984 17.0977 8.54297 17.1562 8.23047 17.1875C7.92578 17.2188 7.64062 17.2344 7.375 17.2344C6.49219 17.2344 5.66016 17.082 4.87891 16.7773C4.10547 16.4727 3.42578 16.0391 2.83984 15.4766C2.26172 14.9062 1.80469 14.2109 1.46875 13.3906C1.13281 12.5703 0.964844 11.6445 0.964844 10.6133C0.964844 9.66797 1.13281 8.78906 1.46875 7.97656C1.80469 7.16406 2.26172 6.46094 2.83984 5.86719C3.42578 5.27344 4.10547 4.80859 4.87891 4.47266C5.66016 4.13672 6.49219 3.96875 7.375 3.96875C7.78125 3.96875 8.18359 4.01953 8.58203 4.12109C8.98047 4.22266 9.36719 4.36328 9.74219 4.54297C10.1172 4.72266 10.4727 4.93359 10.8086 5.17578C11.1523 5.41797 11.4727 5.67969 11.7695 5.96094L13.0117 4.47266H13.7852V15.418Z" fill="white"/>
<path d="M30.0156 17H26.418L19.9375 5.9375V17H16.5742V0.195312H20.1719L26.6523 11.2695V0.195312H30.0156V17Z" fill="white"/>
</svg>
