<svg width="24" height="24" viewBox="0 0 24 24" fill="none" xmlns="http://www.w3.org/2000/svg">
<path d="M11.5115 4C10.9214 4.54985 10.4481 5.21291 10.1199 5.94964C9.79161 6.68638 9.6151 7.48168 9.60087 8.28811C9.58664 9.09454 9.73499 9.89557 10.0371 10.6434C10.3391 11.3913 10.7887 12.0706 11.3591 12.6409C11.9294 13.2113 12.6087 13.6609 13.3566 13.9629C14.1044 14.265 14.9055 14.4134 15.7119 14.3991C16.5183 14.3849 17.3136 14.2084 18.0504 13.8801C18.7871 13.5519 19.4502 13.0786 20 12.4885C19.7453 16.6807 16.2651 20.0008 12.0088 20.0008C7.58519 20.0008 4 16.4156 4 11.9928C4 7.73654 7.32012 4.25626 11.5115 4Z" fill="#333333"/>
</svg>
