<svg width="24" height="24" viewBox="0 0 24 24" fill="none" xmlns="http://www.w3.org/2000/svg">
<path d="M9.384 17.424H3V6H9.384V7.264H4.44V10.832H9.096V12.08H4.44V16.16H9.384V17.424Z" fill="#333333"/>
<path d="M20.9466 17.424H19.2666L13.1546 7.936H13.0906C13.1013 8.128 13.112 8.34133 13.1226 8.576C13.144 8.81067 13.16 9.06667 13.1706 9.344C13.1813 9.61067 13.192 9.888 13.2026 10.176C13.2133 10.464 13.2186 10.752 13.2186 11.04V17.424H11.8906V6H13.5546L19.6506 15.456H19.7146C19.704 15.328 19.6933 15.152 19.6826 14.928C19.672 14.6933 19.6613 14.4373 19.6506 14.16C19.64 13.872 19.6293 13.5787 19.6186 13.28C19.608 12.9813 19.6026 12.704 19.6026 12.448V6H20.9466V17.424Z" fill="#333333"/>
</svg>
