<svg width="24" height="24" viewBox="0 0 24 24" fill="none" xmlns="http://www.w3.org/2000/svg">
<path d="M7.024 6C8.51733 6 9.60533 6.29333 10.288 6.88C10.9707 7.46667 11.312 8.29333 11.312 9.36C11.312 9.82933 11.232 10.2827 11.072 10.72C10.9227 11.1467 10.672 11.5307 10.32 11.872C9.968 12.2133 9.49867 12.4853 8.912 12.688C8.32533 12.88 7.60533 12.976 6.752 12.976H5.44V17.424H4V6H7.024ZM6.896 7.232H5.44V11.744H6.592C7.31733 11.744 7.92 11.6693 8.4 11.52C8.88 11.36 9.23733 11.1093 9.472 10.768C9.70667 10.4267 9.824 9.97867 9.824 9.424C9.824 8.688 9.58933 8.13867 9.12 7.776C8.65067 7.41333 7.90933 7.232 6.896 7.232Z" fill="#333333"/>
<path d="M13.6875 17.424V6H15.1275V16.144H20.1195V17.424H13.6875Z" fill="#333333"/>
</svg>
